<?xml version="1.0" encoding="UTF-8"?>
<svg xmlns="http://www.w3.org/2000/svg" width="720" height="560" viewBox="0 0 720 560" role="img" aria-labelledby="title desc">
  <title id="title">Dorm Moving</title>
  <desc id="desc">boxes, carts, and room-to-room transport</desc>
  <defs>
    <linearGradient id="bg" x1="0" y1="0" x2="1" y2="1">
      <stop offset="0%" stop-color="#eef8ee" />
      <stop offset="100%" stop-color="#daefdc" />
    </linearGradient>
    <linearGradient id="panelFill" x1="0" y1="0" x2="0" y2="1">
      <stop offset="0%" stop-color="#fbfefb" stop-opacity="0.98" />
      <stop offset="100%" stop-color="#ffffff" stop-opacity="0.88" />
    </linearGradient>
    <filter id="softShadow" x="-20%" y="-20%" width="140%" height="140%">
      <feDropShadow dx="0" dy="18" stdDeviation="24" flood-color="#223a23" flood-opacity="0.12" />
    </filter>
  </defs>
  <rect width="720" height="560" rx="24" fill="url(#bg)" />
  <circle cx="106" cy="88" r="58" fill="#8ed495" fill-opacity="0.36" />
  <circle cx="612" cy="94" r="76" fill="#8ed495" fill-opacity="0.22" />
  <circle cx="630" cy="442" r="86" fill="#8ed495" fill-opacity="0.18" />
  <rect x="26" y="26" width="668" height="508" rx="22" fill="#ffffff" fill-opacity="0.18" />
  <rect x="46" y="42" width="128" height="38" rx="10" fill="#ffffff" fill-opacity="0.92" />
  <text x="110" y="67" text-anchor="middle" font-family="Inter, Arial, sans-serif" font-size="18" font-weight="800" fill="#4f9a57">MOVING</text>
  <g filter="url(#softShadow)">
    <rect x="110" y="108" width="500" height="262" rx="34" fill="#ffffff" fill-opacity="0.72" stroke="#bdddc0" stroke-width="2" />
  </g>
  
      <g transform="translate(204 164)">
        <rect x="46" y="10" width="118" height="90" rx="14" fill="#ffffff" stroke="#79b67d" stroke-width="6" />
        <rect x="0" y="102" width="150" height="110" rx="16" fill="#e8f5e9" stroke="#79b67d" stroke-width="6" />
        <rect x="124" y="108" width="88" height="80" rx="14" fill="#ffffff" stroke="#79b67d" stroke-width="6" />
        <path d="M174 34 H218 V216" fill="none" stroke="#4f9a57" stroke-width="10" stroke-linecap="round" />
        <path d="M146 178 H236" fill="none" stroke="#4f9a57" stroke-width="10" stroke-linecap="round" />
        <circle cx="184" cy="234" r="18" fill="#4f9a57" fill-opacity="0.18" stroke="#4f9a57" stroke-width="5" />
        <circle cx="232" cy="234" r="18" fill="#4f9a57" fill-opacity="0.18" stroke="#4f9a57" stroke-width="5" />
      </g>
    
  <rect x="48" y="404" width="624" height="104" rx="20" fill="url(#panelFill)" stroke="#bdddc0" stroke-width="2" />
  <text x="78" y="448" font-family="Inter, Arial, sans-serif" font-size="32" font-weight="800" fill="#223a23">Dorm Moving</text>
  <text x="78" y="482" font-family="Inter, Arial, sans-serif" font-size="18" font-weight="600" fill="#4f9a57" fill-opacity="0.86">boxes, carts, and room-to-room transport</text>
  <circle cx="606" cy="454" r="26" fill="#4f9a57" fill-opacity="0.12" stroke="#4f9a57" stroke-width="2" />
  <path d="M592 454h28M606 440v28" stroke="#4f9a57" stroke-width="4" stroke-linecap="round" />
</svg>

